<svg xmlns="http://www.w3.org/2000/svg" viewBox="0 0 348.35 189.84"><defs><style>.cls-1{fill:#fff}</style></defs><g id="Layer_2" data-name="Layer 2"><g id="Layer_1-2" data-name="Layer 1"><path d="M95.69 113.55c-12.78 0-20.59-5.94-23.89-18.18-3-11.06-5.94-27.88-8.41-48.59L63 43.6l2.43-2.09c8.87-7.6 25.83-11.06 37.82-11.06a38.54 38.54 0 0 1 11.65 1.48c13.94 4.47 22.14 14.62 25 31 2.78 15.7-1.14 43.8-33.46 49.52a61.78 61.78 0 0 1-10.75 1.1ZM102 61.74c.89 5.18 2.09 12.12 3.07 17.51.93-2.3 1.05-6 .24-10.58-.6-3.46-1.7-5.78-3.31-6.93Z"/><path class="cls-1" d="M103.26 36.45a33.57 33.57 0 0 1 9.81 1.19c11.74 3.77 18.43 12 21 26.36 2.16 12.21.37 37.44-28.59 42.57a57 57 0 0 1-9.76 1c-9.83 0-15.47-4-18.1-13.74-2.93-10.7-5.82-27.46-8.25-47.74 7.38-6.32 22.63-9.62 33.92-9.62m-.38 51.22a5.14 5.14 0 0 0 .86-.07c5.12-1 9.88-6.43 7.48-20-1.7-9.86-7.19-12.76-12-12.76a12.53 12.53 0 0 0-4.36.79c.75 4.2 3.86 22.57 5.33 30.09a2.47 2.47 0 0 0 2.7 1.92m.38-63.22c-13.5 0-31.64 3.86-41.72 12.5l-4.87 4.17.76 6.37C59.94 68.49 62.91 85.61 66 97c4 14.75 14.24 22.57 29.67 22.57a67.88 67.88 0 0 0 11.85-1.17c21-3.71 30.52-15.94 34.83-25.53 5.8-12.95 4.37-25.95 3.49-30.94-3.28-18.54-13.08-30.55-29.13-35.7a44.55 44.55 0 0 0-13.47-1.76Z"/><path d="M159.08 102.79a17.53 17.53 0 0 1-12.73-5.23c-4.46-4.52-6.87-11.71-6.77-20.22.23-13.66 3.18-39 6.31-49.21l.72-2.36 2.17-1.17c5.53-3 13.95-6.5 22.68-6.5 10 0 18.31 4.65 23.87 13.44 5.17 8.18 16.72 30.8 22.07 45.28l.32.87.05.93c.16 3.42-1.4 7-4.38 10.16a23.07 23.07 0 0 1-16.09 7.06 18.79 18.79 0 0 1-15.64-8.41l-2.89.54-2 .37c-.25 1.7-.46 3.55-.63 5.48l-.27 3.1-2.7 1.56c-4.94 2.86-9.68 4.31-14.09 4.31Z"/><path class="cls-1" d="M171.46 24.1c6.79 0 13.7 2.59 18.8 10.65s16.5 30.59 21.52 44.16c.21 4.61-7 10.93-14.48 10.93-4.6 0-9.33-2.38-12.57-9-4.24.55-8.86 1.64-13.15 2.26a86.42 86.42 0 0 0-1.44 10.17c-4.14 2.4-7.86 3.49-11.06 3.49-8.67 0-13.63-8-13.5-19.38.23-13.87 3.25-38.42 6-47.52 4.58-2.46 12.13-5.79 19.84-5.79m-.9 39.32 8.25-1.39c-2.22-5.18-4.49-10.22-6.7-15.33a1.81 1.81 0 0 1-.59.17c-.27 5.49-.62 10.92-.92 16.61m.9-51.32c-10 0-19.38 3.92-25.51 7.22l-4.35 2.33-1.45 4.72c-3.35 10.92-6.33 36.74-6.57 50.84v.06c-.12 10.28 2.82 18.75 8.51 24.51a23.35 23.35 0 0 0 17 7c5.48 0 11.23-1.72 17.09-5.12l5.38-3.12.37-4.16a24.06 24.06 0 0 0 15.38 5.45 28.86 28.86 0 0 0 20.43-8.92c4.13-4.33 6.27-9.51 6-14.58l-.09-1.86-.65-1.76c-5.48-14.83-17.32-38-22.62-46.4-6.6-10.48-16.88-16.24-28.92-16.24Z"/><path d="M233.62 89.11c-12.78 0-20.59-6-23.89-18.18-3-11.07-5.94-27.88-8.41-48.6l-.38-3.18 2.43-2.09C212.24 9.46 229.19 6 241.19 6a38.91 38.91 0 0 1 11.65 1.48c13.94 4.48 22.14 14.63 25 31 2.78 15.7-1.14 43.8-33.46 49.52a62.76 62.76 0 0 1-10.76 1.11Zm6.61-48.95c.71 4.14 1.59 9.32 2.43 13.86a1.47 1.47 0 0 0 .55-.42c.22-.29 1.26-2 .17-8.16-.9-5.26-2.38-5.28-3.15-5.28Z"/><path class="cls-1" d="M241.19 12a33.57 33.57 0 0 1 9.81 1.19c11.74 3.77 18.43 12 21 26.36 2.16 12.21.37 37.44-28.59 42.57a57.16 57.16 0 0 1-9.76 1c-9.83 0-15.47-4-18.1-13.74-2.93-10.7-5.83-27.46-8.25-47.75 7.35-6.33 22.6-9.63 33.89-9.63m-1 48.8a5 5 0 0 0 .86-.08c5.12-1 10.66-2.78 8.26-16.33-1.39-8.09-5.17-10.23-9.07-10.23a20 20 0 0 0-6.85 1.56c.75 4.2 2.63 15.64 4.1 23.15a2.47 2.47 0 0 0 2.7 1.93m1-60.8c-13.5 0-31.64 3.87-41.72 12.51l-4.87 4.17.76 6.36c2.51 21 5.47 38.12 8.58 49.49 4 14.76 14.25 22.58 29.68 22.58a68.87 68.87 0 0 0 11.85-1.17C266.46 90.22 276 78 280.3 68.4c5.8-13 4.37-25.95 3.49-30.94-3.28-18.53-13.08-30.54-29.13-35.69A44.52 44.52 0 0 0 241.19 0Z"/><path d="M32 183.29a36.85 36.85 0 0 1-12.39-2.13C11 178.07 5.83 170.92 6 162.51a18.22 18.22 0 0 1 12.44-17.19l2.51-.79 2.28 1.31a4.6 4.6 0 0 0 2 .41 2.32 2.32 0 0 0 1.31-.27 3.15 3.15 0 0 0 .24-1.67l-.19-6.7c-.32-10.82-.66-22-.48-26.83l.09-2.56 1.92-1.71c3.7-3.29 9.59-5.33 15.36-5.33 10.89 0 18.69 6.76 20.37 17.64 1.26 8.21 2.56 26-.6 40.8-3.06 14.16-15.63 23.67-31.25 23.67Z"/><path class="cls-1" d="M43.48 107.18c6.42 0 13 3.26 14.44 12.56 1.22 7.93 2.37 25-.54 38.62-2.66 12.32-13.73 18.93-25.4 18.93a31.08 31.08 0 0 1-10.38-1.78c-13.69-4.95-11.45-21.28-1.35-24.46a10.49 10.49 0 0 0 5 1.2c3.76 0 7.73-1.95 7.55-8.12-.34-12-.88-27.51-.68-33.13 2.51-2.23 6.91-3.82 11.38-3.82m0-12c-7.29 0-14.53 2.56-19.35 6.85l-3.83 3.41-.19 5.12c-.18 5 .16 16.3.48 27.22v.57l-4 1.25A24.19 24.19 0 0 0 0 162.38c-.23 11.07 6.48 20.43 17.51 24.41a43 43 0 0 0 14.49 2.5c18.54 0 33.46-11.41 37.13-28.39 3.35-15.65 2-34.38.67-43-2.15-13.8-12.47-22.72-26.31-22.72Z"/><path d="M103.78 183.84a44.25 44.25 0 0 1-20.55-5c-9.82-5-16.13-13.42-18.74-24.94-2.37-10.2-1.58-21.54 2.09-29.57 6.67-14.94 20-23.23 37.35-23.29h.32c25.87 0 35.27 17.4 38.11 24.88 3.84 10.44 4.28 20.62 1.35 30.29-4.29 13.84-14 22.88-28 26.19a50.38 50.38 0 0 1-11.93 1.44Zm.51-46.58a2.31 2.31 0 0 0-1.75.75c-.92 1-1.36 2.88-1.21 5.18.24 3.93 2.07 4.79 2.76 4.79h.13c1.57-.09 2.59-1.95 2.75-5 .14-2.25-.31-4.07-1.24-5.06a1.94 1.94 0 0 0-1.44-.66Z"/><path class="cls-1" d="M104.25 107c22.88 0 30.48 15.67 32.5 21 3.19 8.67 3.93 17.48 1.22 26.42-3.66 11.79-11.59 19.25-23.65 22.09a44.1 44.1 0 0 1-10.54 1.32A38.16 38.16 0 0 1 86 173.48c-8.61-4.41-13.56-11.66-15.66-20.94-2-8.75-1.49-18.77 1.7-25.75C76.3 117.23 85.32 107.07 104 107h.3m-.16 47h.47c3.59-.2 8-3 8.41-10.64s-3.87-12.06-8.68-12.06c-5 0-9.49 4.27-8.94 12.33.45 7.52 5.24 10.39 8.74 10.39m.16-59h-.37c-19.86.07-35.06 9.6-42.78 26.85-4.23 9.3-5.15 21.77-2.45 33.37 3 13.12 10.53 23.12 21.84 28.92a50.2 50.2 0 0 0 23.29 5.7 56.76 56.76 0 0 0 13.34-1.65c16.2-3.83 27.37-14.27 32.31-30.2v-.08c3.32-10.95 2.84-22.4-1.44-34v-.12a44.89 44.89 0 0 0-11.55-17.1C128.09 99 117 95 104.25 95Zm-3.43 48.8Z"/><path d="M197.65 183.75a18.57 18.57 0 0 1-15.59-8.59l.09 1-2.37 2c-3.29 2.8-8.49 4.47-13.91 4.47-10.86 0-18.7-6.1-20-15.56-1.55-11.18-2.28-41.71-.91-55.34l.18-1.76 1.11-1.39c3.34-4.18 9.56-6.77 16.23-6.77 9.35 0 16.27 4.79 18.39 12.29l1.85-2.69c1.87-2.69 3.63-5.24 4.75-6.93l1.37-2.07 2.43-.5a21.75 21.75 0 0 1 4.26-.43c6.73 0 12.94 3.23 16.19 8.42s3.3 11.43.24 17.72a80.59 80.59 0 0 1-6.31 11.26c-.43.67-.91 1.4-1.44 2.25 1.36 2.47 2.81 5 4.22 7.46 3.65 6.34 7.1 12.33 9 17.24l.72 1.89-.57 1.94c-2.33 7.91-11.09 14.09-19.93 14.09Z"/><path class="cls-1" d="M195.56 107.5c8.53 0 16.06 7.17 11 17.52-3.53 7.32-4.27 7.86-8.61 14.78a1.93 1.93 0 0 0-.07 2.3c5 9.22 11.32 19.11 13.89 25.89-1.52 5.16-7.8 9.76-14.16 9.76-4.41 0-8.85-2.2-11.79-7.93-1.42-2.85-3.18-6.17-6.37-12.41-1.56 2.44-3.46 5.56-3.73 7a47.65 47.65 0 0 0 .14 9.22c-2.24 1.9-6.07 3-10 3-6.34 0-13-2.93-14-10.36-1.56-11.25-2.17-41.2-.88-53.94 2.28-2.85 6.92-4.52 11.55-4.52 6.39 0 12.78 3.17 13.05 10.82a102 102 0 0 1 0 12.95 11 11 0 0 0 0 1.56c2.24-3.53 4.2-6.71 6.3-9.76 2.51-3.86 8.13-11.79 10.64-15.59a15.2 15.2 0 0 1 3.06-.31m0-12a27.78 27.78 0 0 0-5.46.55l-4.87 1-2.74 4.15-1.26 1.86c-4.46-4.55-11-7.23-18.72-7.23-8.57 0-16.39 3.37-20.92 9l-2.21 2.76-.36 3.53c-1.34 13.25-.83 44 .94 56.79 1.66 12.37 12.08 20.71 25.91 20.71A28.78 28.78 0 0 0 182 184a23.86 23.86 0 0 0 15.66 5.71c11.55 0 22.59-7.9 25.68-18.37l1.14-3.88-1.48-3.74c-2-5.36-5.6-11.55-9.36-18.1l-2.44-4.26a85.67 85.67 0 0 0 6.18-11.13c3.92-8.07 3.71-16.64-.58-23.49S204.34 95.5 195.56 95.5Z"/><path d="M244.34 182.7c-4.31 0-12.1-.14-15.81-1h-.11c-11.8-3-13.75-13.34-14.19-20.84-.53-9-.34-40.39 1.11-52.63l.57-4.78 4.78-.48c5-.51 13-.79 22.58-.79 10.29 0 20.8.32 27.43.84l2.82.22 1.63 2.33c2.64 3.79 4.26 13 .42 20.34a17 17 0 0 1-4.95 5.8c2.88 6.48 2.9 12.94.07 17.8l1.78 2.51a19.68 19.68 0 0 1 2.31 19.11c-2.65 6.08-8.3 10-15.9 11a137 137 0 0 1-14.54.57Z"/><path class="cls-1" d="M243.27 108.14c10 0 20.45.31 27 .82 2.5 3.6 4.27 20.4-12.07 20.4h-14v3.52c1.76 0 5-.15 8.53-.15 4.34 0 9.16.23 12.34 1.24 4.06 9 .94 16.87-9 17.35-1.15 0-2.14.06-3.19.06-2.09 0-4.4-.06-8.6-.06v4.13h23.31c5.15 7.25 3.39 19-9.48 20.67a129.16 129.16 0 0 1-13.76.58c-5.94 0-11.91-.26-14.43-.85-6.37-1.63-9.15-6.17-9.69-15.39s-.27-40.11 1.08-51.56c5.21-.53 13.43-.76 22-.76m0-12c-6.9 0-16.52.14-23.18.82l-9.58 1-1.13 9.56c-1.51 12.76-1.69 44.23-1.14 53.67.85 14.51 7.14 23.36 18.7 26.31H227.19c3.29.77 9.07 1.17 17.19 1.17a145.41 145.41 0 0 0 15.33-.69c9.62-1.26 17.13-6.56 20.61-14.52a25.72 25.72 0 0 0-2.71-24.7 25.32 25.32 0 0 0 .06-15.42 23.22 23.22 0 0 0 3.26-4.73c4.74-9.09 3.3-20.63-.82-26.54l-3.25-4.65-5.69-.42c-6.78-.53-17.47-.86-27.9-.86Z"/><path d="M306.6 183.84c-8.22 0-19.9-1.55-28.85-8.91l-.49-.41-.4-.5a17.69 17.69 0 0 1-2-18.62 15.9 15.9 0 0 1 8.73-8.12 27 27 0 0 1-7.79-15.05c-1.46-9.4 3.23-25.13 22.06-30.15a46.5 46.5 0 0 1 11.93-1.48c8.13 0 15.45 1.77 20.11 4.85 7 4.63 10.27 11.26 9 18.19a17.77 17.77 0 0 1-7.12 11.08c7.39 5.67 11.14 13.82 10.4 22.79-.84 10.16-7.38 19.43-16.27 23.08-5.01 2.04-12.24 3.25-19.31 3.25Z"/><path class="cls-1" d="M309.83 106.6c6.54 0 13 1.36 16.79 3.85 11.86 7.87 5.63 19.38-2.17 21.21-2.64-3.25-8.25-5-12.93-5-4.09 0-7.47 1.32-7.53 4.1 0 1.49 1 2.38 4.47 2.85 9.89 1.29 15.11 2.85 17.55 4.34 17.21 10.64 10.44 31.85-2.3 37.06a48.88 48.88 0 0 1-17.11 2.81c-8.67 0-18.23-2-25-7.55-5.54-7-1-17.92 7.14-17.92a11.13 11.13 0 0 1 4.92 1.25c5.3 2.63 9.77 4 12.88 4 2.5 0 4.12-.88 4.6-2.72.75-2.71.68-3.53-4.4-3.86-11-.82-22.84-7.05-24.94-19.79-.88-5.69 1.42-19 17.69-23.38a40 40 0 0 1 10.38-1.28m0-12a52.15 52.15 0 0 0-13.5 1.69c-22.63 6-28.2 25.32-26.43 36.8v.12a33.14 33.14 0 0 0 4.79 12.59 22.44 22.44 0 0 0-5.21 7 23.74 23.74 0 0 0 2.66 25l.8 1 1 .81c10.33 8.49 23.46 10.28 32.66 10.28 7.91 0 15.78-1.34 21.58-3.67 10.93-4.48 19-15.78 20-28.13a30.92 30.92 0 0 0-7.72-23.42 23.19 23.19 0 0 0 4.37-9.9c1.66-9.25-2.69-18.31-11.63-24.24-8-5.28-19-5.85-23.42-5.85Z"/></g></g></svg>