<?xml version="1.0" encoding="utf-8"?>
<!-- Generator: Adobe Illustrator 25.4.6, SVG Export Plug-In . SVG Version: 6.00 Build 0)  -->
<svg version="1.1" id="Layer_1" xmlns="http://www.w3.org/2000/svg" xmlns:xlink="http://www.w3.org/1999/xlink" x="0px" y="0px"
	 viewBox="0 0 476.7 466.7" style="enable-background:new 0 0 476.7 466.7;" xml:space="preserve">
<style type="text/css">
	.st0{fill:#754799;}
</style>
<path class="st0" d="M233,47c102.9-5.7,191,73.1,196.7,176s-73.1,191-176,196.7s-191-73.1-196.7-176c-0.7-12.9-11.7-22.7-24.6-22
	s-22.7,11.7-22,24.6c7.1,128.7,117.2,227.2,245.9,220c128.7-7.1,227.2-117.2,220-245.9S359.1-6.8,230.4,0.4
	C167.8,3.8,113.3,30.9,74.3,72.9L38.9,41.2c-7-6.3-17.2-7.7-25.7-3.6S-0.5,50.5,0,59.9l5.2,93.2c0.7,12.9,11.7,22.7,24.6,22
	l93.2-5.2c9.4-0.5,17.6-6.7,20.7-15.6c3.1-8.9,0.6-18.8-6.5-25.1L109.1,104C140.1,70.9,183.3,49.7,233,47L233,47z"/>
<path class="st0" d="M282.9,345.8c9.1,9.1,23.9,9.1,33,0s9.1-23.9,0-33l-63.2-63.2v-107c0-12.9-10.4-23.3-23.3-23.3
	S206,129.8,206,142.7v116.7c0,6.2,2.5,12.1,6.8,16.5L282.9,345.8z"/>
</svg>
