<svg width="96" height="23" fill="none" xmlns="http://www.w3.org/2000/svg"><path d="M13.632 11.739h-.107c-.042-.128-.384-1.707-.426-1.835-.47-1.984-1.024-4.437-1.43-5.91C10.453-.442 5.056-.058 3.435 1.478 3.029 3.824 2.58 6.171 2.197 8.54c-.405 2.517-1.045 5.162-1.386 7.68-.875 6.08 3.306 7.04 6.784 5.162.213-3.328.384-5.888.618-9.152.256.726 1.195 4.95 1.707 6.998.875 3.498 5.355 2.858 6.763 1.984.618-2.475 1.194-4.971 1.77-7.446.107-.448.192-.874.278-1.322.042 0 .106 0 .149.021.128 3.264-.021 4.16.256 6.699.384 3.392 4.928 4.288 7.253 1.28-.277-2.411-.533-4.502-.81-6.912-.299-2.518-.79-6.699-1.003-8.32-.555-4.203-4.992-5.824-8.427-3.606-.128.427-.298.832-.405 1.238-.661 2.837-1.323 5.653-1.984 8.49-.021.128-.085.256-.128.406ZM37.454.24c-5.867.021-8.704 3.221-10.048 6.23-1.003 2.197-1.174 5.354-.534 8.106.662 2.923 2.219 5.205 4.928 6.592 2.838 1.472 5.846 1.707 8.918.96 3.797-.896 6.293-3.243 7.445-6.955.853-2.816.619-5.589-.384-8.32-.64-1.685-3.05-6.656-10.325-6.613Zm.106 7.637c1.515 0 2.88 1.387 2.73 3.798-.127 2.41-1.514 3.285-2.644 3.349-1.11.085-2.752-.79-2.902-3.264-.17-2.539 1.238-3.883 2.816-3.883ZM65.474 14.064c.17-.085.32-.17.448-.277 4.843-3.563 2.794-9.643-.597-11.926-4.289-2.858-13.27-1.557-15.126.256-.704 2.582-.448 13.526-.085 15.424.917 4.822 5.61 5.504 7.381 3.563.15-1.045.278-2.624.363-4.373.021-.448.043-.896.043-1.28a.394.394 0 0 0 .149-.043c.107.15.235.32.341.49 1.302 2.049 1.92 2.987 2.453 3.84 2.518 4.097 7.574 3.52 8.256-.191-.469-1.28-2.623-4.544-3.626-5.483Zm-4.438-5.461c0 .597-.298 1.002-.96 1.109-.511.107-1.045.085-1.578.085-.085 0-.256-.17-.256-.256-.021-.746 0-1.088 0-1.984 1.621-.746 2.794.022 2.794 1.046ZM70.298 17.072c.171 2.901 1.046 4.33 3.051 4.843 1.536.362 7.104.32 8.875.085 4.053-.533 4.608-4.224 2.986-6.507h-7.338v-1.301c1.984 0 2.624.043 3.712 0 3.136-.15 4.117-2.624 2.837-5.461-1.813-.576-5.333-.342-6.57-.342V7.28h4.394c5.141 0 4.587-5.29 3.797-6.421C82.245.56 74.202.475 70.64.837c-.427 3.606-.512 13.312-.342 16.235ZM91.34 22.235c1.578-.022 2.794-.747 3.306-2.07.192-.469.277-1.024.32-1.514.15-1.792-.939-3.264-2.646-3.648a4.966 4.966 0 0 0-2.496.128c-1.109.362-1.856 1.109-2.069 2.282-.064.619-.107 1.259-.043 1.878.15 1.493 1.024 2.432 2.475 2.773.384.085.768.128 1.152.17Zm3.84-17.686c0-4.949-5.142-4.757-6.998-3.093-.363 2.56-.384 6.187.277 10.368.427 3.136 3.67 3.264 5.333 1.387.683-1.878 1.387-6.998 1.387-8.662Z" fill="#000"/></svg>